# xmcd CD database file
#
# Track frame offsets:
#	150
#	25923
#	49305
#	83930
#	103648
#	141255
#	170005
#
# Disc length: 2919 seconds
#
# Revision: 2
# Processed by: cddbd v1.5.1PL0 Copyright (c) Steve Scherf et al.
# Submitted via: CD2WAV32(JP) R3.22
#
DISCID=5d0b6507
DTITLE=Bill Evans Trio - Consecration - The Last [Disc2]
DYEAR=1980
DGENRE=Jazz
TTITLE0=Tiffany
TTITLE1=My Foolish Heart
TTITLE2=Days Of Wine And Roses
TTITLE3=Your Story
TTITLE4=Turn Out The Stars
TTITLE5=Like Someone In Love
TTITLE6=My Romance
EXTD=
EXTT0=
EXTT1=
EXTT2=
EXTT3=
EXTT4=
EXTT5=
EXTT6=
PLAYORDER=
